<svg xmlns="http://www.w3.org/2000/svg" viewBox="0 0 955.89 236.33"><g id="Слой_2" data-name="Слой 2"><g id="Слой_1-2" data-name="Слой 1"><path d="M568.85,81.37c-8.61,49-17.59,100.18-26.58,151.42h-28q23-114.76,45.85-229.2h25.41C588,30.27,590.86,57,592.88,83.74s3.22,53.75,4.7,79.29l48.5-159.4h26.45c-2.47,76.36-4.93,152.44-7.4,228.92h-29.7c3.71-50.89,7.43-101.77,11.09-151.84-15.23,50.14-30.69,101.08-46.17,152.06H579C575.59,181.63,572.15,130.47,568.85,81.37Z"/><path d="M168.35,232.75h-30c9.1-76.44,18.17-152.6,27.32-229.37,8.67,0,17.29-.13,25.89.16,1,0,2.55,2.22,2.84,3.62,5.1,24.56,10.41,49.08,14.93,73.74,5.17,28.26,9.61,56.65,14.38,85a15.77,15.77,0,0,1,.49,5.14c1.2-24.37,1.53-48.83,3.81-73.1,2.94-31.41,7.43-62.69,11.29-94.27H269q-13.65,114.63-27.3,229.11H213.32c-9.8-56.65-25.55-112.12-29.91-165C178.67,119.71,173.51,176.18,168.35,232.75Z"/><path d="M714.19,52.63C719,36.32,726,20.93,740.34,10.68c16.89-12,35.56-13.76,54.48-5.85,15.55,6.5,21.34,20.57,24.19,36,3.45,18.67,2,37.47.85,56.2-1.93,30.26-6.63,60.08-15.88,89.05-4,12.6-9.52,24.48-18.83,34.18-15,15.61-41.4,20.45-60.88,11-14.44-7-20.82-19.82-23-34.65C699.46,184.52,709.25,69.47,714.19,52.63Zm76.16,11.91c-.42-6-.52-12.7-1.43-19.25-2.1-15.18-17.08-22.2-29.85-13.6a32.15,32.15,0,0,0-10.72,12.66c-3.63,7.92-6.9,16.42-8.07,25q-6.28,46.11-10.82,92.46c-.93,9.6.36,19.55,1.66,29.2,1.09,8.1,5.68,14.37,14.46,15.69,9.34,1.4,17.32-1.65,22.33-9.85a61.08,61.08,0,0,0,7-15.83C785,143.07,787.94,104.16,790.35,64.54Z"/><path d="M98.44,3.37c6.71,76.71,13.38,152.84,20.07,229.29H0c.41-1.51.75-3,1.22-4.48Q37.45,117.93,73.61,7.67c1-3.13,2.22-4.62,5.82-4.4C85.55,3.63,91.7,3.37,98.44,3.37ZM86.07,208.76c-2.14-51.3-4.25-102-6.42-153.85-.87,3.37-1.43,5.72-2.09,8Q62.78,114.59,48,166.22c-4.05,14.11-8.14,28.22-12.26,42.54Z"/><path d="M955.89,3.37C932,80,908.32,156.21,884.52,232.66H861Q853.5,118.47,846,3.72h29.37c1.79,56.17,3.57,112.37,5.29,166.65,6.75-24.32,13.94-50.52,21.32-76.67C910,65.1,918.43,34.47,926.45,5.86,927.53,1.07,926.55,2.81,955.89,3.37Z"/><path d="M440.36,38.49c-8.58-7.59-17.24-11.68-27.78-9.65-14.2,2.73-24.29,15.92-25.21,32.5-.58,10.46,2.76,19.75,8.85,27.93,7.35,9.87,15.41,19.19,22.85,29,11.35,14.93,17.47,31.74,16.06,50.65-1.83,24.45-9.87,46.18-31.9,59.48-17.53,10.59-36,10.65-53.91-.14-3.17-1.9-4.65-4.11-4-8.07,1.32-8.35,2.16-16.79,3.28-26,2,1.44,3.55,2.55,5.09,3.69,6,4.45,12.59,7.48,20.12,8,15.81,1.07,28-9.65,31.53-27.24,2.68-13.49.18-26-7.94-36.88-7.34-9.84-15.49-19.11-23.49-28.45-25.86-30.18-17.42-69.56-2.69-90.4,15.09-21.34,45-29,68.16-17.76,3.83,1.87,5.36,3.76,4.44,8.33C442.2,21.45,441.53,29.58,440.36,38.49Z"/><path d="M307.7,232.72H278c9.11-76.46,18.19-152.61,27.29-229h30.08C326.11,80.12,316.92,156.3,307.7,232.72Z"/><path d="M513.2,3.63C504,80.23,494.77,156.4,485.56,232.69H455.82C464.94,156.19,474,80,483.12,3.63Z"/></g></g></svg>