<svg xmlns="http://www.w3.org/2000/svg" viewBox="0 0 252.88 252.87"><defs><style>.cls-1{fill:#3825ff;}</style></defs><g id="Слой_2" data-name="Слой 2"><g id="Слой_1-2" data-name="Слой 1"><path class="cls-1" d="M126.44,0A126.44,126.44,0,1,0,252.88,126.44,126.44,126.44,0,0,0,126.44,0ZM90.11,126.1c-3.83,12.74-7.81,25.43-13.75,37.4-4.07,8.19-9,15.8-15.73,22.08a47.29,47.29,0,0,1-24,12.19,16.05,16.05,0,0,1-1.83.23,9.27,9.27,0,0,1-1.17,0,8.85,8.85,0,0,1-8.06-8.26,8.75,8.75,0,0,1,7.31-9.26A31.29,31.29,0,0,0,51,170.05a62.15,62.15,0,0,0,8.86-13.32c5-9.73,8.4-20.07,11.62-30.47,4.28-13.83,8-27.85,12.79-41.51,3.91-11,8.45-21.81,15.17-31.5s15-17.17,26-21.45A48.79,48.79,0,0,1,136,29,8.84,8.84,0,0,1,146.1,36.2a8.67,8.67,0,0,1-6.92,10.16c-11,1.82-19,8.07-25.12,17-5.28,7.66-8.93,16.12-12.12,24.8C97.37,100.62,93.92,113.42,90.11,126.1Zm98.26,35.39a9.68,9.68,0,0,1-13.31,0l-23-22.22-24.24,23.44a9.67,9.67,0,0,1-13.31,0,9.12,9.12,0,0,1,0-13.17l24.09-23.29-22.44-21.7a9.12,9.12,0,0,1,0-13.17,9.66,9.66,0,0,1,13.31,0l22.59,21.85L173.41,92.6a9.67,9.67,0,0,1,13.31,0,9.12,9.12,0,0,1,0,13.17l-21.17,20.48,22.82,22.07A9.12,9.12,0,0,1,188.37,161.49Z"/></g></g></svg>